# xmcd
#
# Track frame offsets:
#	150
#	31275
#	52897
#	86990
#	110342
#	136540
#	158258
#	188670
#	208919
#	224379
#
# Disc length: 3185 seconds
#
# Revision: 1
# Processed by: cddbd v1.5.2PL0 Copyright (c) Steve Scherf et al.
# Submitted via: audiograbber 1.83.01
#
DISCID=7e0c6f0a
DTITLE=Outboys - End of the show
DYEAR=2007
DGENRE=
TTITLE0=Start of the show - You Devil
TTITLE1=What's going on?
TTITLE2=Survivors
TTITLE3=On the beach
TTITLE4=Maze
TTITLE5=Wreck (like me)
TTITLE6=Ashes
TTITLE7=End of the show
TTITLE8=Bonus Track: Dance while you can
TTITLE9=Bonus Track: The Message
EXTD=
EXTT0=
EXTT1=
EXTT2=
EXTT3=
EXTT4=
EXTT5=
EXTT6=
EXTT7=
EXTT8=
EXTT9=
PLAYORDER=
